<mxfile host="app.diagrams.net" agent="Mozilla/5.0 (Windows NT 10.0; Win64; x64) AppleWebKit/537.36 (KHTML, like Gecko) Chrome/134.0.0.0 Safari/537.36" version="26.1.3">
  <diagram name="Final" id="gr99QVz43kK9NJj1iTSZ">
    <mxGraphModel dx="1888" dy="2513" grid="1" gridSize="10" guides="1" tooltips="1" connect="1" arrows="1" fold="1" page="1" pageScale="1" pageWidth="1169" pageHeight="827" math="0" shadow="0" adaptiveColors="auto">
      <root>
        <mxCell id="2RkC6UTGazBfT3ZMune4-0" />
        <mxCell id="2RkC6UTGazBfT3ZMune4-1" parent="2RkC6UTGazBfT3ZMune4-0" />
        <mxCell id="2RkC6UTGazBfT3ZMune4-2" style="edgeStyle=none;curved=1;rounded=0;orthogonalLoop=1;jettySize=auto;html=1;fontSize=12;startSize=8;endSize=8;endArrow=none;startFill=0;" parent="2RkC6UTGazBfT3ZMune4-1" edge="1">
          <mxGeometry relative="1" as="geometry">
            <mxPoint x="990" y="1920" as="sourcePoint" />
          </mxGeometry>
        </mxCell>
        <mxCell id="2RkC6UTGazBfT3ZMune4-3" style="edgeStyle=none;curved=1;rounded=0;orthogonalLoop=1;jettySize=auto;html=1;fontSize=12;startSize=8;endSize=8;endArrow=none;startFill=0;" parent="2RkC6UTGazBfT3ZMune4-1" edge="1">
          <mxGeometry relative="1" as="geometry">
            <mxPoint x="860" y="1900" as="sourcePoint" />
          </mxGeometry>
        </mxCell>
        <mxCell id="2RkC6UTGazBfT3ZMune4-4" value="(1, N)&lt;div&gt;weekday&lt;/div&gt;" style="edgeLabel;html=1;align=center;verticalAlign=middle;resizable=0;points=[];fontSize=12;rounded=0;" parent="2RkC6UTGazBfT3ZMune4-3" vertex="1" connectable="0">
          <mxGeometry x="-0.025" y="-3" relative="1" as="geometry">
            <mxPoint x="11" y="-3" as="offset" />
          </mxGeometry>
        </mxCell>
        <mxCell id="2RkC6UTGazBfT3ZMune4-5" style="edgeStyle=none;curved=1;rounded=0;orthogonalLoop=1;jettySize=auto;html=1;fontSize=12;startSize=8;endSize=8;endArrow=none;startFill=0;" parent="2RkC6UTGazBfT3ZMune4-1" edge="1">
          <mxGeometry relative="1" as="geometry">
            <mxPoint x="660" y="1900" as="sourcePoint" />
          </mxGeometry>
        </mxCell>
        <mxCell id="2RkC6UTGazBfT3ZMune4-6" value="Agency" style="whiteSpace=wrap;html=1;align=center;fillColor=#dae8fc;strokeColor=#6c8ebf;rounded=0;" parent="2RkC6UTGazBfT3ZMune4-1" vertex="1">
          <mxGeometry x="160" y="960" width="100" height="40" as="geometry" />
        </mxCell>
        <mxCell id="2RkC6UTGazBfT3ZMune4-7" style="edgeStyle=none;curved=1;rounded=0;orthogonalLoop=1;jettySize=auto;html=1;fontSize=12;startSize=8;endSize=8;endArrow=none;startFill=0;" parent="2RkC6UTGazBfT3ZMune4-1" source="2RkC6UTGazBfT3ZMune4-11" target="2RkC6UTGazBfT3ZMune4-105" edge="1">
          <mxGeometry relative="1" as="geometry" />
        </mxCell>
        <mxCell id="2RkC6UTGazBfT3ZMune4-8" value="(&lt;font style=&quot;color: rgb(255, 0, 0);&quot;&gt;2&lt;/font&gt;, N)&lt;div&gt;route&lt;/div&gt;" style="edgeLabel;html=1;align=center;verticalAlign=middle;resizable=0;points=[];fontSize=12;rounded=0;" parent="2RkC6UTGazBfT3ZMune4-7" vertex="1" connectable="0">
          <mxGeometry x="-0.3602" y="-1" relative="1" as="geometry">
            <mxPoint x="1" y="-21" as="offset" />
          </mxGeometry>
        </mxCell>
        <mxCell id="2RkC6UTGazBfT3ZMune4-9" style="rounded=0;orthogonalLoop=1;jettySize=auto;html=1;endArrow=none;startFill=0;" parent="2RkC6UTGazBfT3ZMune4-1" source="2RkC6UTGazBfT3ZMune4-11" target="2RkC6UTGazBfT3ZMune4-20" edge="1">
          <mxGeometry relative="1" as="geometry">
            <mxPoint x="430" y="1330" as="targetPoint" />
          </mxGeometry>
        </mxCell>
        <mxCell id="2RkC6UTGazBfT3ZMune4-10" value="&lt;span style=&quot;font-size: 12px;&quot;&gt;(1, N)&lt;/span&gt;&lt;div style=&quot;font-size: 12px;&quot;&gt;route&lt;/div&gt;" style="edgeLabel;html=1;align=center;verticalAlign=middle;resizable=0;points=[];" parent="2RkC6UTGazBfT3ZMune4-9" vertex="1" connectable="0">
          <mxGeometry x="-0.6078" y="2" relative="1" as="geometry">
            <mxPoint x="-22" y="10" as="offset" />
          </mxGeometry>
        </mxCell>
        <mxCell id="2RkC6UTGazBfT3ZMune4-11" value="Route" style="whiteSpace=wrap;html=1;align=center;fillColor=#dae8fc;strokeColor=#6c8ebf;rounded=0;" parent="2RkC6UTGazBfT3ZMune4-1" vertex="1">
          <mxGeometry x="160" y="1160" width="100" height="40" as="geometry" />
        </mxCell>
        <mxCell id="2RkC6UTGazBfT3ZMune4-12" value="Operate" style="shape=rhombus;perimeter=rhombusPerimeter;whiteSpace=wrap;html=1;align=center;fillColor=#fff2cc;strokeColor=#d6b656;rounded=0;" parent="2RkC6UTGazBfT3ZMune4-1" vertex="1">
          <mxGeometry x="150" y="1050" width="120" height="60" as="geometry" />
        </mxCell>
        <mxCell id="2RkC6UTGazBfT3ZMune4-13" value="" style="endArrow=none;html=1;rounded=0;fontSize=12;startSize=8;endSize=8;curved=1;startArrow=none;startFill=0;" parent="2RkC6UTGazBfT3ZMune4-1" source="2RkC6UTGazBfT3ZMune4-6" target="2RkC6UTGazBfT3ZMune4-12" edge="1">
          <mxGeometry relative="1" as="geometry">
            <mxPoint x="270" y="1120" as="sourcePoint" />
            <mxPoint x="210" y="1040" as="targetPoint" />
          </mxGeometry>
        </mxCell>
        <mxCell id="2RkC6UTGazBfT3ZMune4-14" value="(1, N)&lt;div&gt;agency&lt;/div&gt;" style="edgeLabel;html=1;align=center;verticalAlign=middle;resizable=0;points=[];fontSize=12;rounded=0;" parent="2RkC6UTGazBfT3ZMune4-13" vertex="1" connectable="0">
          <mxGeometry x="-0.5778" y="-2" relative="1" as="geometry">
            <mxPoint x="-21" y="9" as="offset" />
          </mxGeometry>
        </mxCell>
        <mxCell id="2RkC6UTGazBfT3ZMune4-15" value="" style="endArrow=none;html=1;rounded=0;fontSize=12;startSize=8;endSize=8;curved=1;" parent="2RkC6UTGazBfT3ZMune4-1" source="2RkC6UTGazBfT3ZMune4-12" target="2RkC6UTGazBfT3ZMune4-11" edge="1">
          <mxGeometry relative="1" as="geometry">
            <mxPoint x="210" y="1090" as="sourcePoint" />
            <mxPoint x="330" y="910" as="targetPoint" />
          </mxGeometry>
        </mxCell>
        <mxCell id="2RkC6UTGazBfT3ZMune4-16" value="(1, 1)&lt;div&gt;route&lt;/div&gt;" style="edgeLabel;html=1;align=center;verticalAlign=middle;resizable=0;points=[];fontSize=12;rounded=0;" parent="2RkC6UTGazBfT3ZMune4-15" vertex="1" connectable="0">
          <mxGeometry x="0.4636" y="-2" relative="1" as="geometry">
            <mxPoint x="-18" y="-6" as="offset" />
          </mxGeometry>
        </mxCell>
        <mxCell id="2RkC6UTGazBfT3ZMune4-17" style="edgeStyle=none;curved=1;rounded=0;orthogonalLoop=1;jettySize=auto;html=1;fontSize=12;startSize=8;endSize=8;endArrow=none;startFill=0;" parent="2RkC6UTGazBfT3ZMune4-1" source="2RkC6UTGazBfT3ZMune4-19" target="2RkC6UTGazBfT3ZMune4-95" edge="1">
          <mxGeometry relative="1" as="geometry" />
        </mxCell>
        <mxCell id="2RkC6UTGazBfT3ZMune4-18" value="(&lt;font style=&quot;color: rgb(255, 0, 0);&quot;&gt;2&lt;/font&gt;, N)&lt;div&gt;trip&lt;/div&gt;" style="edgeLabel;html=1;align=center;verticalAlign=middle;resizable=0;points=[];fontSize=12;rounded=0;labelBackgroundColor=default;" parent="2RkC6UTGazBfT3ZMune4-17" vertex="1" connectable="0">
          <mxGeometry x="-0.4018" y="-2" relative="1" as="geometry">
            <mxPoint x="18" y="-4" as="offset" />
          </mxGeometry>
        </mxCell>
        <mxCell id="2RkC6UTGazBfT3ZMune4-19" value="Trip" style="whiteSpace=wrap;html=1;align=center;fillColor=#dae8fc;strokeColor=#6c8ebf;rounded=0;" parent="2RkC6UTGazBfT3ZMune4-1" vertex="1">
          <mxGeometry x="880" y="1360" width="100" height="40" as="geometry" />
        </mxCell>
        <mxCell id="2RkC6UTGazBfT3ZMune4-20" value="Assign_To" style="shape=rhombus;perimeter=rhombusPerimeter;whiteSpace=wrap;html=1;align=center;fillColor=#fff2cc;strokeColor=#d6b656;rounded=0;" parent="2RkC6UTGazBfT3ZMune4-1" vertex="1">
          <mxGeometry x="150" y="1348.74" width="120" height="60" as="geometry" />
        </mxCell>
        <mxCell id="2RkC6UTGazBfT3ZMune4-21" value="" style="endArrow=none;html=1;rounded=0;fontSize=12;startSize=8;endSize=8;curved=1;" parent="2RkC6UTGazBfT3ZMune4-1" source="2RkC6UTGazBfT3ZMune4-19" target="2RkC6UTGazBfT3ZMune4-20" edge="1">
          <mxGeometry relative="1" as="geometry">
            <mxPoint x="190" y="1340" as="sourcePoint" />
            <mxPoint x="480" y="1378.7399999999998" as="targetPoint" />
          </mxGeometry>
        </mxCell>
        <mxCell id="2RkC6UTGazBfT3ZMune4-22" value="(1, 1)&lt;div&gt;trip&lt;/div&gt;" style="edgeLabel;html=1;align=center;verticalAlign=middle;resizable=0;points=[];fontSize=12;rounded=0;" parent="2RkC6UTGazBfT3ZMune4-21" vertex="1" connectable="0">
          <mxGeometry x="-0.5296" y="-2" relative="1" as="geometry">
            <mxPoint x="123" y="-18" as="offset" />
          </mxGeometry>
        </mxCell>
        <mxCell id="2RkC6UTGazBfT3ZMune4-23" value="Stop_Info" style="shape=ext;margin=3;double=1;whiteSpace=wrap;html=1;align=center;fillColor=#dae8fc;strokeColor=#6c8ebf;rounded=0;" parent="2RkC6UTGazBfT3ZMune4-1" vertex="1">
          <mxGeometry x="880" y="1160" width="100" height="40" as="geometry" />
        </mxCell>
        <mxCell id="2RkC6UTGazBfT3ZMune4-24" style="edgeStyle=none;curved=1;rounded=0;orthogonalLoop=1;jettySize=auto;html=1;fontSize=12;startSize=8;endSize=8;startArrow=none;startFill=0;endArrow=none;" parent="2RkC6UTGazBfT3ZMune4-1" source="2RkC6UTGazBfT3ZMune4-25" target="2RkC6UTGazBfT3ZMune4-6" edge="1">
          <mxGeometry relative="1" as="geometry" />
        </mxCell>
        <mxCell id="2RkC6UTGazBfT3ZMune4-25" value="ID" style="ellipse;whiteSpace=wrap;html=1;align=center;fontStyle=4;fillColor=#d5e8d4;strokeColor=#82b366;rounded=0;" parent="2RkC6UTGazBfT3ZMune4-1" vertex="1">
          <mxGeometry x="160" y="870" width="100" height="40" as="geometry" />
        </mxCell>
        <mxCell id="2RkC6UTGazBfT3ZMune4-26" style="edgeStyle=none;curved=1;rounded=0;orthogonalLoop=1;jettySize=auto;html=1;fontSize=12;startSize=8;endSize=8;startArrow=none;startFill=0;endArrow=none;" parent="2RkC6UTGazBfT3ZMune4-1" source="2RkC6UTGazBfT3ZMune4-27" target="2RkC6UTGazBfT3ZMune4-6" edge="1">
          <mxGeometry relative="1" as="geometry">
            <mxPoint x="210" y="960" as="targetPoint" />
          </mxGeometry>
        </mxCell>
        <mxCell id="2RkC6UTGazBfT3ZMune4-27" value="Name" style="ellipse;whiteSpace=wrap;html=1;align=center;fillColor=#d5e8d4;strokeColor=#82b366;rounded=0;" parent="2RkC6UTGazBfT3ZMune4-1" vertex="1">
          <mxGeometry x="270" y="870" width="100" height="40" as="geometry" />
        </mxCell>
        <mxCell id="2RkC6UTGazBfT3ZMune4-28" style="edgeStyle=none;curved=1;rounded=0;orthogonalLoop=1;jettySize=auto;html=1;fontSize=12;startSize=8;endSize=8;startArrow=none;startFill=0;endArrow=none;" parent="2RkC6UTGazBfT3ZMune4-1" source="2RkC6UTGazBfT3ZMune4-29" target="2RkC6UTGazBfT3ZMune4-6" edge="1">
          <mxGeometry relative="1" as="geometry" />
        </mxCell>
        <mxCell id="2RkC6UTGazBfT3ZMune4-29" value="Website" style="ellipse;whiteSpace=wrap;html=1;align=center;fillColor=#d5e8d4;strokeColor=#82b366;rounded=0;" parent="2RkC6UTGazBfT3ZMune4-1" vertex="1">
          <mxGeometry x="50" y="870" width="100" height="40" as="geometry" />
        </mxCell>
        <mxCell id="2RkC6UTGazBfT3ZMune4-30" style="edgeStyle=none;curved=1;rounded=0;orthogonalLoop=1;jettySize=auto;html=1;fontSize=12;startSize=8;endSize=8;startArrow=none;startFill=0;endArrow=none;" parent="2RkC6UTGazBfT3ZMune4-1" source="2RkC6UTGazBfT3ZMune4-31" target="2RkC6UTGazBfT3ZMune4-6" edge="1">
          <mxGeometry relative="1" as="geometry">
            <mxPoint x="210" y="960" as="targetPoint" />
          </mxGeometry>
        </mxCell>
        <mxCell id="2RkC6UTGazBfT3ZMune4-31" value="Time_Zone" style="ellipse;whiteSpace=wrap;html=1;align=center;fillColor=#d5e8d4;strokeColor=#82b366;rounded=0;" parent="2RkC6UTGazBfT3ZMune4-1" vertex="1">
          <mxGeometry x="40" y="920" width="100" height="40" as="geometry" />
        </mxCell>
        <mxCell id="2RkC6UTGazBfT3ZMune4-32" style="edgeStyle=none;curved=1;rounded=0;orthogonalLoop=1;jettySize=auto;html=1;fontSize=12;startSize=8;endSize=8;startArrow=none;startFill=0;endArrow=none;" parent="2RkC6UTGazBfT3ZMune4-1" source="2RkC6UTGazBfT3ZMune4-51" target="2RkC6UTGazBfT3ZMune4-6" edge="1">
          <mxGeometry relative="1" as="geometry">
            <mxPoint x="103.35011242094356" y="934.9011140604218" as="sourcePoint" />
          </mxGeometry>
        </mxCell>
        <mxCell id="2RkC6UTGazBfT3ZMune4-33" style="edgeStyle=none;curved=1;rounded=0;orthogonalLoop=1;jettySize=auto;html=1;fontSize=12;startSize=8;endSize=8;endArrow=none;startFill=0;" parent="2RkC6UTGazBfT3ZMune4-1" source="2RkC6UTGazBfT3ZMune4-34" target="2RkC6UTGazBfT3ZMune4-6" edge="1">
          <mxGeometry relative="1" as="geometry" />
        </mxCell>
        <mxCell id="2RkC6UTGazBfT3ZMune4-34" value="Phone_Number" style="ellipse;whiteSpace=wrap;html=1;align=center;fillColor=#d5e8d4;strokeColor=#82b366;rounded=0;" parent="2RkC6UTGazBfT3ZMune4-1" vertex="1">
          <mxGeometry x="50" y="1030" width="100" height="40" as="geometry" />
        </mxCell>
        <mxCell id="2RkC6UTGazBfT3ZMune4-35" style="edgeStyle=none;curved=1;rounded=0;orthogonalLoop=1;jettySize=auto;html=1;fontSize=12;startSize=8;endSize=8;endArrow=none;startFill=0;" parent="2RkC6UTGazBfT3ZMune4-1" source="2RkC6UTGazBfT3ZMune4-36" target="2RkC6UTGazBfT3ZMune4-6" edge="1">
          <mxGeometry relative="1" as="geometry" />
        </mxCell>
        <mxCell id="2RkC6UTGazBfT3ZMune4-36" value="Price_URL" style="ellipse;whiteSpace=wrap;html=1;align=center;fillColor=#d5e8d4;strokeColor=#82b366;rounded=0;" parent="2RkC6UTGazBfT3ZMune4-1" vertex="1">
          <mxGeometry x="280" y="920" width="100" height="40" as="geometry" />
        </mxCell>
        <mxCell id="2RkC6UTGazBfT3ZMune4-37" style="edgeStyle=none;curved=1;rounded=0;orthogonalLoop=1;jettySize=auto;html=1;fontSize=12;startSize=8;endSize=8;endArrow=none;startFill=0;" parent="2RkC6UTGazBfT3ZMune4-1" source="2RkC6UTGazBfT3ZMune4-38" target="2RkC6UTGazBfT3ZMune4-6" edge="1">
          <mxGeometry relative="1" as="geometry" />
        </mxCell>
        <mxCell id="2RkC6UTGazBfT3ZMune4-38" value="Email" style="ellipse;whiteSpace=wrap;html=1;align=center;fillColor=#d5e8d4;strokeColor=#82b366;rounded=0;" parent="2RkC6UTGazBfT3ZMune4-1" vertex="1">
          <mxGeometry x="280" y="980" width="100" height="40" as="geometry" />
        </mxCell>
        <mxCell id="2RkC6UTGazBfT3ZMune4-39" style="edgeStyle=none;curved=1;rounded=0;orthogonalLoop=1;jettySize=auto;html=1;fontSize=12;startSize=8;endSize=8;endArrow=none;startFill=0;" parent="2RkC6UTGazBfT3ZMune4-1" source="2RkC6UTGazBfT3ZMune4-40" target="2RkC6UTGazBfT3ZMune4-6" edge="1">
          <mxGeometry relative="1" as="geometry" />
        </mxCell>
        <mxCell id="2RkC6UTGazBfT3ZMune4-40" value="Address" style="ellipse;whiteSpace=wrap;html=1;align=center;fillColor=#d5e8d4;strokeColor=#82b366;rounded=0;" parent="2RkC6UTGazBfT3ZMune4-1" vertex="1">
          <mxGeometry x="270" y="1030" width="100" height="40" as="geometry" />
        </mxCell>
        <mxCell id="2RkC6UTGazBfT3ZMune4-41" style="edgeStyle=none;curved=1;rounded=0;orthogonalLoop=1;jettySize=auto;html=1;exitX=0.5;exitY=0;exitDx=0;exitDy=0;fontSize=12;startSize=8;endSize=8;" parent="2RkC6UTGazBfT3ZMune4-1" source="2RkC6UTGazBfT3ZMune4-6" target="2RkC6UTGazBfT3ZMune4-6" edge="1">
          <mxGeometry relative="1" as="geometry" />
        </mxCell>
        <mxCell id="2RkC6UTGazBfT3ZMune4-42" style="edgeStyle=none;curved=1;rounded=0;orthogonalLoop=1;jettySize=auto;html=1;fontSize=12;startSize=8;endSize=8;endArrow=none;startFill=0;" parent="2RkC6UTGazBfT3ZMune4-1" source="2RkC6UTGazBfT3ZMune4-43" target="2RkC6UTGazBfT3ZMune4-11" edge="1">
          <mxGeometry relative="1" as="geometry" />
        </mxCell>
        <mxCell id="2RkC6UTGazBfT3ZMune4-43" value="ID" style="ellipse;whiteSpace=wrap;html=1;align=center;fontStyle=4;fillColor=#d5e8d4;strokeColor=#82b366;rounded=0;" parent="2RkC6UTGazBfT3ZMune4-1" vertex="1">
          <mxGeometry x="50" y="1110" width="100" height="40" as="geometry" />
        </mxCell>
        <mxCell id="2RkC6UTGazBfT3ZMune4-44" style="edgeStyle=none;curved=1;rounded=0;orthogonalLoop=1;jettySize=auto;html=1;fontSize=12;startSize=8;endSize=8;endArrow=none;startFill=0;" parent="2RkC6UTGazBfT3ZMune4-1" source="2RkC6UTGazBfT3ZMune4-45" target="2RkC6UTGazBfT3ZMune4-11" edge="1">
          <mxGeometry relative="1" as="geometry" />
        </mxCell>
        <mxCell id="2RkC6UTGazBfT3ZMune4-45" value="Name" style="ellipse;whiteSpace=wrap;html=1;align=center;fillColor=#d5e8d4;strokeColor=#82b366;rounded=0;" parent="2RkC6UTGazBfT3ZMune4-1" vertex="1">
          <mxGeometry x="40" y="1160" width="100" height="40" as="geometry" />
        </mxCell>
        <mxCell id="2RkC6UTGazBfT3ZMune4-46" style="edgeStyle=none;curved=1;rounded=0;orthogonalLoop=1;jettySize=auto;html=1;fontSize=12;startSize=8;endSize=8;endArrow=none;startFill=0;" parent="2RkC6UTGazBfT3ZMune4-1" source="2RkC6UTGazBfT3ZMune4-47" target="2RkC6UTGazBfT3ZMune4-11" edge="1">
          <mxGeometry relative="1" as="geometry" />
        </mxCell>
        <mxCell id="2RkC6UTGazBfT3ZMune4-47" value="Type" style="ellipse;whiteSpace=wrap;html=1;align=center;fillColor=#d5e8d4;strokeColor=#82b366;rounded=0;" parent="2RkC6UTGazBfT3ZMune4-1" vertex="1">
          <mxGeometry x="50" y="1211" width="100" height="40" as="geometry" />
        </mxCell>
        <mxCell id="2RkC6UTGazBfT3ZMune4-48" style="edgeStyle=none;curved=1;rounded=0;orthogonalLoop=1;jettySize=auto;html=1;fontSize=12;startSize=8;endSize=8;endArrow=none;startFill=0;" parent="2RkC6UTGazBfT3ZMune4-1" source="2RkC6UTGazBfT3ZMune4-50" target="2RkC6UTGazBfT3ZMune4-66" edge="1">
          <mxGeometry relative="1" as="geometry">
            <mxPoint x="560.0899999999999" y="1010.0000000000002" as="targetPoint" />
          </mxGeometry>
        </mxCell>
        <mxCell id="2RkC6UTGazBfT3ZMune4-49" value="(1, 1)" style="edgeLabel;html=1;align=center;verticalAlign=middle;resizable=0;points=[];fontSize=12;rounded=0;" parent="2RkC6UTGazBfT3ZMune4-48" vertex="1" connectable="0">
          <mxGeometry x="-0.1375" relative="1" as="geometry">
            <mxPoint x="-31" y="-10" as="offset" />
          </mxGeometry>
        </mxCell>
        <mxCell id="2RkC6UTGazBfT3ZMune4-50" value="Stop" style="whiteSpace=wrap;html=1;align=center;fillColor=#dae8fc;strokeColor=#6c8ebf;rounded=0;" parent="2RkC6UTGazBfT3ZMune4-1" vertex="1">
          <mxGeometry x="519" y="960" width="100" height="40" as="geometry" />
        </mxCell>
        <mxCell id="2RkC6UTGazBfT3ZMune4-51" value="Languages" style="ellipse;shape=doubleEllipse;margin=3;whiteSpace=wrap;html=1;align=center;fillColor=#d5e8d4;strokeColor=#82b366;rounded=0;" parent="2RkC6UTGazBfT3ZMune4-1" vertex="1">
          <mxGeometry x="40" y="980" width="100" height="40" as="geometry" />
        </mxCell>
        <mxCell id="2RkC6UTGazBfT3ZMune4-52" style="edgeStyle=none;curved=1;rounded=0;orthogonalLoop=1;jettySize=auto;html=1;fontSize=12;startSize=8;endSize=8;endArrow=none;startFill=0;" parent="2RkC6UTGazBfT3ZMune4-1" source="2RkC6UTGazBfT3ZMune4-53" target="2RkC6UTGazBfT3ZMune4-50" edge="1">
          <mxGeometry relative="1" as="geometry" />
        </mxCell>
        <mxCell id="2RkC6UTGazBfT3ZMune4-53" value="ID" style="ellipse;whiteSpace=wrap;html=1;align=center;fontStyle=4;fillColor=#d5e8d4;strokeColor=#82b366;rounded=0;" parent="2RkC6UTGazBfT3ZMune4-1" vertex="1">
          <mxGeometry x="450" y="900" width="100" height="40" as="geometry" />
        </mxCell>
        <mxCell id="2RkC6UTGazBfT3ZMune4-54" style="edgeStyle=none;curved=1;rounded=0;orthogonalLoop=1;jettySize=auto;html=1;fontSize=12;startSize=8;endSize=8;endArrow=none;startFill=0;" parent="2RkC6UTGazBfT3ZMune4-1" source="2RkC6UTGazBfT3ZMune4-55" target="2RkC6UTGazBfT3ZMune4-50" edge="1">
          <mxGeometry relative="1" as="geometry" />
        </mxCell>
        <mxCell id="2RkC6UTGazBfT3ZMune4-55" value="&lt;span style=&quot;text-align: left; text-wrap-mode: nowrap;&quot;&gt;C&lt;/span&gt;&lt;span style=&quot;text-align: left; text-wrap-mode: nowrap; background-color: transparent; color: light-dark(rgb(0, 0, 0), rgb(255, 255, 255));&quot;&gt;oordinates&lt;/span&gt;" style="ellipse;whiteSpace=wrap;html=1;align=center;fillColor=#d5e8d4;strokeColor=#82b366;rounded=0;" parent="2RkC6UTGazBfT3ZMune4-1" vertex="1">
          <mxGeometry x="570" y="900" width="100" height="40" as="geometry" />
        </mxCell>
        <mxCell id="2RkC6UTGazBfT3ZMune4-56" style="edgeStyle=none;curved=1;rounded=0;orthogonalLoop=1;jettySize=auto;html=1;fontSize=12;startSize=8;endSize=8;endArrow=none;startFill=0;" parent="2RkC6UTGazBfT3ZMune4-1" source="2RkC6UTGazBfT3ZMune4-57" target="2RkC6UTGazBfT3ZMune4-55" edge="1">
          <mxGeometry relative="1" as="geometry" />
        </mxCell>
        <mxCell id="2RkC6UTGazBfT3ZMune4-57" value="Longitude" style="ellipse;whiteSpace=wrap;html=1;align=center;fillColor=#d5e8d4;strokeColor=#82b366;rounded=0;" parent="2RkC6UTGazBfT3ZMune4-1" vertex="1">
          <mxGeometry x="629" y="840" width="100" height="40" as="geometry" />
        </mxCell>
        <mxCell id="2RkC6UTGazBfT3ZMune4-58" style="edgeStyle=none;curved=1;rounded=0;orthogonalLoop=1;jettySize=auto;html=1;fontSize=12;startSize=8;endSize=8;endArrow=none;startFill=0;" parent="2RkC6UTGazBfT3ZMune4-1" source="2RkC6UTGazBfT3ZMune4-59" target="2RkC6UTGazBfT3ZMune4-55" edge="1">
          <mxGeometry relative="1" as="geometry" />
        </mxCell>
        <mxCell id="2RkC6UTGazBfT3ZMune4-59" value="Latitude" style="ellipse;whiteSpace=wrap;html=1;align=center;fillColor=#d5e8d4;strokeColor=#82b366;rounded=0;" parent="2RkC6UTGazBfT3ZMune4-1" vertex="1">
          <mxGeometry x="509" y="840" width="100" height="40" as="geometry" />
        </mxCell>
        <mxCell id="2RkC6UTGazBfT3ZMune4-60" style="edgeStyle=none;curved=1;rounded=0;orthogonalLoop=1;jettySize=auto;html=1;fontSize=12;startSize=8;endSize=8;endArrow=none;startFill=0;" parent="2RkC6UTGazBfT3ZMune4-1" source="2RkC6UTGazBfT3ZMune4-66" target="2RkC6UTGazBfT3ZMune4-64" edge="1">
          <mxGeometry relative="1" as="geometry">
            <mxPoint x="696.1428571428569" y="1001.2600000000002" as="sourcePoint" />
          </mxGeometry>
        </mxCell>
        <mxCell id="2RkC6UTGazBfT3ZMune4-61" style="edgeStyle=none;curved=1;rounded=0;orthogonalLoop=1;jettySize=auto;html=1;fontSize=12;startSize=8;endSize=8;endArrow=none;startFill=0;" parent="2RkC6UTGazBfT3ZMune4-1" source="2RkC6UTGazBfT3ZMune4-64" target="2RkC6UTGazBfT3ZMune4-70" edge="1">
          <mxGeometry relative="1" as="geometry" />
        </mxCell>
        <mxCell id="2RkC6UTGazBfT3ZMune4-62" style="edgeStyle=none;curved=1;rounded=0;orthogonalLoop=1;jettySize=auto;html=1;fontSize=12;startSize=8;endSize=8;endArrow=none;startFill=0;" parent="2RkC6UTGazBfT3ZMune4-1" source="2RkC6UTGazBfT3ZMune4-64" target="2RkC6UTGazBfT3ZMune4-115" edge="1">
          <mxGeometry relative="1" as="geometry" />
        </mxCell>
        <mxCell id="2RkC6UTGazBfT3ZMune4-63" value="(1, N)&lt;div&gt;station&lt;/div&gt;" style="edgeLabel;html=1;align=center;verticalAlign=middle;resizable=0;points=[];fontSize=12;rounded=0;" parent="2RkC6UTGazBfT3ZMune4-62" vertex="1" connectable="0">
          <mxGeometry x="-0.175" y="-4" relative="1" as="geometry">
            <mxPoint x="26" y="3" as="offset" />
          </mxGeometry>
        </mxCell>
        <mxCell id="2RkC6UTGazBfT3ZMune4-64" value="Station" style="whiteSpace=wrap;html=1;align=center;fillColor=#dae8fc;strokeColor=#6c8ebf;rounded=0;" parent="2RkC6UTGazBfT3ZMune4-1" vertex="1">
          <mxGeometry x="880" y="870" width="100" height="40" as="geometry" />
        </mxCell>
        <mxCell id="2RkC6UTGazBfT3ZMune4-65" style="edgeStyle=none;curved=1;rounded=0;orthogonalLoop=1;jettySize=auto;html=1;fontSize=12;startSize=8;endSize=8;endArrow=none;startFill=0;" parent="2RkC6UTGazBfT3ZMune4-1" source="2RkC6UTGazBfT3ZMune4-66" target="2RkC6UTGazBfT3ZMune4-68" edge="1">
          <mxGeometry relative="1" as="geometry" />
        </mxCell>
        <mxCell id="2RkC6UTGazBfT3ZMune4-66" value="IS A" style="triangle;whiteSpace=wrap;html=1;direction=south;fillColor=#fff2cc;strokeColor=#d6b656;rounded=0;" parent="2RkC6UTGazBfT3ZMune4-1" vertex="1">
          <mxGeometry x="720" y="951.26" width="80" height="60" as="geometry" />
        </mxCell>
        <mxCell id="2RkC6UTGazBfT3ZMune4-67" style="edgeStyle=none;curved=1;rounded=0;orthogonalLoop=1;jettySize=auto;html=1;fontSize=12;startSize=8;endSize=8;endArrow=none;startFill=0;" parent="2RkC6UTGazBfT3ZMune4-1" source="2RkC6UTGazBfT3ZMune4-68" target="2RkC6UTGazBfT3ZMune4-69" edge="1">
          <mxGeometry relative="1" as="geometry" />
        </mxCell>
        <mxCell id="2RkC6UTGazBfT3ZMune4-68" value="Platform" style="whiteSpace=wrap;html=1;align=center;fillColor=#dae8fc;strokeColor=#6c8ebf;rounded=0;" parent="2RkC6UTGazBfT3ZMune4-1" vertex="1">
          <mxGeometry x="880" y="1050" width="100" height="40" as="geometry" />
        </mxCell>
        <mxCell id="2RkC6UTGazBfT3ZMune4-69" value="&lt;div style=&quot;text-align: left;&quot;&gt;&lt;span style=&quot;background-color: transparent; color: light-dark(rgb(0, 0, 0), rgb(255, 255, 255)); text-wrap-mode: nowrap;&quot;&gt;Code&lt;/span&gt;&lt;/div&gt;" style="ellipse;whiteSpace=wrap;html=1;align=center;fillColor=#d5e8d4;strokeColor=#82b366;rounded=0;fontStyle=0" parent="2RkC6UTGazBfT3ZMune4-1" vertex="1">
          <mxGeometry x="1000" y="1050" width="100" height="40" as="geometry" />
        </mxCell>
        <mxCell id="2RkC6UTGazBfT3ZMune4-70" value="&lt;div style=&quot;text-align: left;&quot;&gt;&lt;span style=&quot;background-color: transparent; color: light-dark(rgb(0, 0, 0), rgb(255, 255, 255)); text-wrap-mode: nowrap;&quot;&gt;Name&lt;/span&gt;&lt;/div&gt;" style="ellipse;whiteSpace=wrap;html=1;align=center;fillColor=#d5e8d4;strokeColor=#82b366;rounded=0;" parent="2RkC6UTGazBfT3ZMune4-1" vertex="1">
          <mxGeometry x="1000" y="870" width="100" height="40" as="geometry" />
        </mxCell>
        <mxCell id="2RkC6UTGazBfT3ZMune4-71" value="Exception" style="shape=ext;margin=3;double=1;whiteSpace=wrap;html=1;align=center;fillColor=#dae8fc;strokeColor=#6c8ebf;rounded=0;" parent="2RkC6UTGazBfT3ZMune4-1" vertex="1">
          <mxGeometry x="520.5" y="1460" width="100" height="40" as="geometry" />
        </mxCell>
        <mxCell id="2RkC6UTGazBfT3ZMune4-72" style="edgeStyle=none;curved=1;rounded=0;orthogonalLoop=1;jettySize=auto;html=1;fontSize=12;startSize=8;endSize=8;endArrow=none;startFill=0;" parent="2RkC6UTGazBfT3ZMune4-1" source="2RkC6UTGazBfT3ZMune4-73" target="2RkC6UTGazBfT3ZMune4-19" edge="1">
          <mxGeometry relative="1" as="geometry" />
        </mxCell>
        <mxCell id="2RkC6UTGazBfT3ZMune4-73" value="ID" style="ellipse;whiteSpace=wrap;html=1;align=center;fontStyle=4;fillColor=#d5e8d4;strokeColor=#82b366;rounded=0;" parent="2RkC6UTGazBfT3ZMune4-1" vertex="1">
          <mxGeometry x="1000" y="1390" width="100" height="40" as="geometry" />
        </mxCell>
        <mxCell id="2RkC6UTGazBfT3ZMune4-74" style="edgeStyle=none;curved=1;rounded=0;orthogonalLoop=1;jettySize=auto;html=1;fontSize=12;startSize=8;endSize=8;endArrow=none;startFill=0;" parent="2RkC6UTGazBfT3ZMune4-1" source="2RkC6UTGazBfT3ZMune4-75" target="2RkC6UTGazBfT3ZMune4-19" edge="1">
          <mxGeometry relative="1" as="geometry" />
        </mxCell>
        <mxCell id="2RkC6UTGazBfT3ZMune4-75" value="Direction" style="ellipse;whiteSpace=wrap;html=1;align=center;fillColor=#d5e8d4;strokeColor=#82b366;rounded=0;" parent="2RkC6UTGazBfT3ZMune4-1" vertex="1">
          <mxGeometry x="1000" y="1330" width="100" height="40" as="geometry" />
        </mxCell>
        <mxCell id="2RkC6UTGazBfT3ZMune4-76" style="rounded=0;orthogonalLoop=1;jettySize=auto;html=1;fontSize=12;startSize=8;endSize=8;endArrow=none;startFill=0;" parent="2RkC6UTGazBfT3ZMune4-1" source="2RkC6UTGazBfT3ZMune4-78" target="2RkC6UTGazBfT3ZMune4-89" edge="1">
          <mxGeometry relative="1" as="geometry">
            <mxPoint x="200" y="1520" as="sourcePoint" />
            <mxPoint x="260" y="1600" as="targetPoint" />
          </mxGeometry>
        </mxCell>
        <mxCell id="2RkC6UTGazBfT3ZMune4-77" value="(0, N)&lt;div&gt;service&lt;/div&gt;" style="edgeLabel;html=1;align=center;verticalAlign=middle;resizable=0;points=[];fontSize=12;rounded=0;" parent="2RkC6UTGazBfT3ZMune4-76" vertex="1" connectable="0">
          <mxGeometry x="-0.5829" relative="1" as="geometry">
            <mxPoint x="8" y="-19" as="offset" />
          </mxGeometry>
        </mxCell>
        <mxCell id="2RkC6UTGazBfT3ZMune4-78" value="Service" style="whiteSpace=wrap;html=1;align=center;fillColor=#dae8fc;strokeColor=#6c8ebf;rounded=0;" parent="2RkC6UTGazBfT3ZMune4-1" vertex="1">
          <mxGeometry x="160" y="1460" width="100" height="40" as="geometry" />
        </mxCell>
        <mxCell id="2RkC6UTGazBfT3ZMune4-79" style="edgeStyle=none;curved=1;rounded=0;orthogonalLoop=1;jettySize=auto;html=1;fontSize=12;startSize=8;endSize=8;endArrow=none;startFill=0;" parent="2RkC6UTGazBfT3ZMune4-1" source="2RkC6UTGazBfT3ZMune4-80" target="2RkC6UTGazBfT3ZMune4-78" edge="1">
          <mxGeometry relative="1" as="geometry" />
        </mxCell>
        <mxCell id="2RkC6UTGazBfT3ZMune4-80" value="ID" style="ellipse;whiteSpace=wrap;html=1;align=center;fontStyle=4;fillColor=#d5e8d4;strokeColor=#82b366;rounded=0;" parent="2RkC6UTGazBfT3ZMune4-1" vertex="1">
          <mxGeometry x="50" y="1410" width="100" height="40" as="geometry" />
        </mxCell>
        <mxCell id="2RkC6UTGazBfT3ZMune4-81" style="edgeStyle=none;curved=1;rounded=0;orthogonalLoop=1;jettySize=auto;html=1;fontSize=12;startSize=8;endSize=8;endArrow=none;startFill=0;" parent="2RkC6UTGazBfT3ZMune4-1" source="2RkC6UTGazBfT3ZMune4-82" target="2RkC6UTGazBfT3ZMune4-78" edge="1">
          <mxGeometry relative="1" as="geometry" />
        </mxCell>
        <mxCell id="2RkC6UTGazBfT3ZMune4-82" value="Start_Date" style="ellipse;whiteSpace=wrap;html=1;align=center;fillColor=#d5e8d4;strokeColor=#82b366;rounded=0;fontStyle=0" parent="2RkC6UTGazBfT3ZMune4-1" vertex="1">
          <mxGeometry x="40" y="1461.26" width="100" height="40" as="geometry" />
        </mxCell>
        <mxCell id="2RkC6UTGazBfT3ZMune4-83" style="edgeStyle=none;curved=1;rounded=0;orthogonalLoop=1;jettySize=auto;html=1;fontSize=12;startSize=8;endSize=8;endArrow=none;startFill=0;" parent="2RkC6UTGazBfT3ZMune4-1" source="2RkC6UTGazBfT3ZMune4-84" target="2RkC6UTGazBfT3ZMune4-78" edge="1">
          <mxGeometry relative="1" as="geometry" />
        </mxCell>
        <mxCell id="2RkC6UTGazBfT3ZMune4-84" value="End_Date" style="ellipse;whiteSpace=wrap;html=1;align=center;fillColor=#d5e8d4;strokeColor=#82b366;rounded=0;fontStyle=0" parent="2RkC6UTGazBfT3ZMune4-1" vertex="1">
          <mxGeometry x="50" y="1510" width="100" height="40" as="geometry" />
        </mxCell>
        <mxCell id="2RkC6UTGazBfT3ZMune4-85" style="rounded=0;orthogonalLoop=1;jettySize=auto;html=1;fontSize=12;startSize=8;endSize=8;endArrow=none;startFill=0;" parent="2RkC6UTGazBfT3ZMune4-1" source="2RkC6UTGazBfT3ZMune4-20" target="2RkC6UTGazBfT3ZMune4-78" edge="1">
          <mxGeometry relative="1" as="geometry">
            <mxPoint x="210" y="1410" as="sourcePoint" />
          </mxGeometry>
        </mxCell>
        <mxCell id="2RkC6UTGazBfT3ZMune4-86" value="(1, N)&lt;div&gt;service&lt;/div&gt;" style="edgeLabel;html=1;align=center;verticalAlign=middle;resizable=0;points=[];fontSize=12;rounded=0;" parent="2RkC6UTGazBfT3ZMune4-85" vertex="1" connectable="0">
          <mxGeometry x="0.5133" y="2" relative="1" as="geometry">
            <mxPoint x="-25" y="-8" as="offset" />
          </mxGeometry>
        </mxCell>
        <mxCell id="2RkC6UTGazBfT3ZMune4-87" style="edgeStyle=none;curved=1;rounded=0;orthogonalLoop=1;jettySize=auto;html=1;fontSize=12;startSize=8;endSize=8;endArrow=none;startFill=0;" parent="2RkC6UTGazBfT3ZMune4-1" source="2RkC6UTGazBfT3ZMune4-89" target="2RkC6UTGazBfT3ZMune4-71" edge="1">
          <mxGeometry relative="1" as="geometry" />
        </mxCell>
        <mxCell id="2RkC6UTGazBfT3ZMune4-88" value="(1, 1)&lt;div&gt;exception&lt;/div&gt;" style="edgeLabel;html=1;align=center;verticalAlign=middle;resizable=0;points=[];fontSize=12;rounded=0;" parent="2RkC6UTGazBfT3ZMune4-87" vertex="1" connectable="0">
          <mxGeometry x="0.5371" relative="1" as="geometry">
            <mxPoint x="-12" y="-19" as="offset" />
          </mxGeometry>
        </mxCell>
        <mxCell id="2RkC6UTGazBfT3ZMune4-89" value="Override" style="shape=rhombus;double=1;perimeter=rhombusPerimeter;whiteSpace=wrap;html=1;align=center;fillColor=#fff2cc;strokeColor=#d6b656;rounded=0;" parent="2RkC6UTGazBfT3ZMune4-1" vertex="1">
          <mxGeometry x="319.5" y="1450" width="120" height="60" as="geometry" />
        </mxCell>
        <mxCell id="2RkC6UTGazBfT3ZMune4-90" style="edgeStyle=none;curved=1;rounded=0;orthogonalLoop=1;jettySize=auto;html=1;fontSize=12;startSize=8;endSize=8;endArrow=none;startFill=0;" parent="2RkC6UTGazBfT3ZMune4-1" source="2RkC6UTGazBfT3ZMune4-96" target="2RkC6UTGazBfT3ZMune4-71" edge="1">
          <mxGeometry relative="1" as="geometry">
            <mxPoint x="-59.22044815691925" y="1761.5725755230364" as="sourcePoint" />
          </mxGeometry>
        </mxCell>
        <mxCell id="2RkC6UTGazBfT3ZMune4-91" style="edgeStyle=none;curved=1;rounded=0;orthogonalLoop=1;jettySize=auto;html=1;fontSize=12;startSize=8;endSize=8;endArrow=none;startFill=0;" parent="2RkC6UTGazBfT3ZMune4-1" source="2RkC6UTGazBfT3ZMune4-92" target="2RkC6UTGazBfT3ZMune4-71" edge="1">
          <mxGeometry relative="1" as="geometry" />
        </mxCell>
        <mxCell id="2RkC6UTGazBfT3ZMune4-92" value="Code" style="ellipse;whiteSpace=wrap;html=1;align=center;fillColor=#d5e8d4;strokeColor=#82b366;rounded=0;" parent="2RkC6UTGazBfT3ZMune4-1" vertex="1">
          <mxGeometry x="630" y="1510" width="100" height="40" as="geometry" />
        </mxCell>
        <mxCell id="2RkC6UTGazBfT3ZMune4-93" style="edgeStyle=none;curved=1;rounded=0;orthogonalLoop=1;jettySize=auto;html=1;fontSize=12;startSize=8;endSize=8;endArrow=none;startFill=0;" parent="2RkC6UTGazBfT3ZMune4-1" source="2RkC6UTGazBfT3ZMune4-95" target="2RkC6UTGazBfT3ZMune4-23" edge="1">
          <mxGeometry relative="1" as="geometry">
            <mxPoint x="790" y="1378.74" as="sourcePoint" />
          </mxGeometry>
        </mxCell>
        <mxCell id="2RkC6UTGazBfT3ZMune4-94" value="(1, 1)&lt;div&gt;stop_info&lt;/div&gt;" style="edgeLabel;html=1;align=center;verticalAlign=middle;resizable=0;points=[];fontSize=12;rounded=0;" parent="2RkC6UTGazBfT3ZMune4-93" vertex="1" connectable="0">
          <mxGeometry x="0.4337" y="-2" relative="1" as="geometry">
            <mxPoint x="28" y="6" as="offset" />
          </mxGeometry>
        </mxCell>
        <mxCell id="2RkC6UTGazBfT3ZMune4-95" value="Stop_At" style="shape=rhombus;double=1;perimeter=rhombusPerimeter;whiteSpace=wrap;html=1;align=center;fillColor=#fff2cc;strokeColor=#d6b656;rounded=0;" parent="2RkC6UTGazBfT3ZMune4-1" vertex="1">
          <mxGeometry x="870" y="1250" width="120" height="60" as="geometry" />
        </mxCell>
        <mxCell id="2RkC6UTGazBfT3ZMune4-96" value="&lt;span style=&quot;border-bottom: 1px dotted&quot;&gt;Date&lt;/span&gt;" style="ellipse;whiteSpace=wrap;html=1;align=center;fillColor=#d5e8d4;strokeColor=#82b366;rounded=0;" parent="2RkC6UTGazBfT3ZMune4-1" vertex="1">
          <mxGeometry x="640.5" y="1460" width="100" height="40" as="geometry" />
        </mxCell>
        <mxCell id="2RkC6UTGazBfT3ZMune4-97" style="edgeStyle=none;curved=1;rounded=0;orthogonalLoop=1;jettySize=auto;html=1;fontSize=12;startSize=8;endSize=8;endArrow=none;startFill=0;" parent="2RkC6UTGazBfT3ZMune4-1" source="2RkC6UTGazBfT3ZMune4-101" target="2RkC6UTGazBfT3ZMune4-123" edge="1">
          <mxGeometry relative="1" as="geometry">
            <mxPoint x="709" y="1180" as="targetPoint" />
          </mxGeometry>
        </mxCell>
        <mxCell id="2RkC6UTGazBfT3ZMune4-98" value="(1, 1)&lt;div&gt;served_stop&lt;/div&gt;" style="edgeLabel;html=1;align=center;verticalAlign=middle;resizable=0;points=[];fontSize=12;rounded=0;" parent="2RkC6UTGazBfT3ZMune4-97" vertex="1" connectable="0">
          <mxGeometry x="-0.271" y="-1" relative="1" as="geometry">
            <mxPoint x="38" y="-2" as="offset" />
          </mxGeometry>
        </mxCell>
        <mxCell id="2RkC6UTGazBfT3ZMune4-99" style="edgeStyle=none;curved=1;rounded=0;orthogonalLoop=1;jettySize=auto;html=1;fontSize=12;startSize=8;endSize=8;endArrow=none;startFill=0;" parent="2RkC6UTGazBfT3ZMune4-1" source="2RkC6UTGazBfT3ZMune4-101" target="2RkC6UTGazBfT3ZMune4-112" edge="1">
          <mxGeometry relative="1" as="geometry" />
        </mxCell>
        <mxCell id="2RkC6UTGazBfT3ZMune4-100" value="(1, N)&lt;div&gt;served_stop&lt;/div&gt;" style="edgeLabel;html=1;align=center;verticalAlign=middle;resizable=0;points=[];fontSize=12;rounded=0;fontColor=default;" parent="2RkC6UTGazBfT3ZMune4-99" vertex="1" connectable="0">
          <mxGeometry x="-0.3354" y="-1" relative="1" as="geometry">
            <mxPoint x="14" y="20" as="offset" />
          </mxGeometry>
        </mxCell>
        <mxCell id="2RkC6UTGazBfT3ZMune4-101" value="Served_Stop" style="shape=ext;margin=3;double=1;whiteSpace=wrap;html=1;align=center;fillColor=#dae8fc;strokeColor=#6c8ebf;rounded=0;" parent="2RkC6UTGazBfT3ZMune4-1" vertex="1">
          <mxGeometry x="520" y="1160" width="100" height="40" as="geometry" />
        </mxCell>
        <mxCell id="2RkC6UTGazBfT3ZMune4-102" style="edgeStyle=none;curved=1;rounded=0;orthogonalLoop=1;jettySize=auto;html=1;fontSize=12;startSize=8;endSize=8;endArrow=none;startFill=0;" parent="2RkC6UTGazBfT3ZMune4-1" source="2RkC6UTGazBfT3ZMune4-120" target="2RkC6UTGazBfT3ZMune4-101" edge="1">
          <mxGeometry relative="1" as="geometry">
            <mxPoint x="960" y="1120" as="sourcePoint" />
          </mxGeometry>
        </mxCell>
        <mxCell id="2RkC6UTGazBfT3ZMune4-103" style="edgeStyle=none;curved=1;rounded=0;orthogonalLoop=1;jettySize=auto;html=1;fontSize=12;startSize=8;endSize=8;endArrow=none;startFill=0;" parent="2RkC6UTGazBfT3ZMune4-1" source="2RkC6UTGazBfT3ZMune4-105" target="2RkC6UTGazBfT3ZMune4-101" edge="1">
          <mxGeometry relative="1" as="geometry">
            <mxPoint x="820" y="1180" as="sourcePoint" />
          </mxGeometry>
        </mxCell>
        <mxCell id="2RkC6UTGazBfT3ZMune4-104" value="(1, 1)&lt;div&gt;served_stop&lt;/div&gt;" style="edgeLabel;html=1;align=center;verticalAlign=middle;resizable=0;points=[];fontSize=12;rounded=0;" parent="2RkC6UTGazBfT3ZMune4-103" vertex="1" connectable="0">
          <mxGeometry x="-0.2323" y="-1" relative="1" as="geometry">
            <mxPoint x="9" y="-21" as="offset" />
          </mxGeometry>
        </mxCell>
        <mxCell id="2RkC6UTGazBfT3ZMune4-105" value="Include" style="shape=rhombus;double=1;perimeter=rhombusPerimeter;whiteSpace=wrap;html=1;align=center;fillColor=#fff2cc;strokeColor=#d6b656;rounded=0;" parent="2RkC6UTGazBfT3ZMune4-1" vertex="1">
          <mxGeometry x="320" y="1150" width="120" height="60" as="geometry" />
        </mxCell>
        <mxCell id="2RkC6UTGazBfT3ZMune4-106" style="edgeStyle=none;curved=1;rounded=0;orthogonalLoop=1;jettySize=auto;html=1;fontSize=12;startSize=8;endSize=8;endArrow=none;startFill=0;" parent="2RkC6UTGazBfT3ZMune4-1" source="2RkC6UTGazBfT3ZMune4-123" target="2RkC6UTGazBfT3ZMune4-50" edge="1">
          <mxGeometry relative="1" as="geometry">
            <mxPoint x="428.9999999999998" y="949.9999999999998" as="sourcePoint" />
          </mxGeometry>
        </mxCell>
        <mxCell id="2RkC6UTGazBfT3ZMune4-107" value="(0, N)&lt;div&gt;stop&lt;/div&gt;" style="edgeLabel;html=1;align=center;verticalAlign=middle;resizable=0;points=[];fontSize=12;rounded=0;fontColor=#000000;" parent="2RkC6UTGazBfT3ZMune4-106" vertex="1" connectable="0">
          <mxGeometry x="0.7424" y="2" relative="1" as="geometry">
            <mxPoint x="22" y="14" as="offset" />
          </mxGeometry>
        </mxCell>
        <mxCell id="2RkC6UTGazBfT3ZMune4-108" style="edgeStyle=none;curved=1;rounded=0;orthogonalLoop=1;jettySize=auto;html=1;fontSize=12;startSize=8;endSize=8;endArrow=none;startFill=0;" parent="2RkC6UTGazBfT3ZMune4-1" source="2RkC6UTGazBfT3ZMune4-121" target="2RkC6UTGazBfT3ZMune4-23" edge="1">
          <mxGeometry relative="1" as="geometry">
            <mxPoint x="930" y="1458.74" as="sourcePoint" />
          </mxGeometry>
        </mxCell>
        <mxCell id="2RkC6UTGazBfT3ZMune4-109" style="edgeStyle=none;curved=1;rounded=0;orthogonalLoop=1;jettySize=auto;html=1;fontSize=12;startSize=8;endSize=8;endArrow=none;startFill=0;" parent="2RkC6UTGazBfT3ZMune4-1" source="2RkC6UTGazBfT3ZMune4-122" target="2RkC6UTGazBfT3ZMune4-23" edge="1">
          <mxGeometry relative="1" as="geometry">
            <mxPoint x="986.5853181508173" y="1421.0685420006168" as="sourcePoint" />
          </mxGeometry>
        </mxCell>
        <mxCell id="2RkC6UTGazBfT3ZMune4-110" style="edgeStyle=none;curved=1;rounded=0;orthogonalLoop=1;jettySize=auto;html=1;fontSize=12;startSize=8;endSize=8;endArrow=none;startFill=0;" parent="2RkC6UTGazBfT3ZMune4-1" source="2RkC6UTGazBfT3ZMune4-112" target="2RkC6UTGazBfT3ZMune4-23" edge="1">
          <mxGeometry relative="1" as="geometry" />
        </mxCell>
        <mxCell id="2RkC6UTGazBfT3ZMune4-111" value="&lt;div&gt;(1, 1)&lt;/div&gt;&lt;div&gt;stop_info&lt;/div&gt;" style="edgeLabel;html=1;align=center;verticalAlign=middle;resizable=0;points=[];fontSize=12;rounded=0;" parent="2RkC6UTGazBfT3ZMune4-110" vertex="1" connectable="0">
          <mxGeometry x="-0.4277" y="-2" relative="1" as="geometry">
            <mxPoint x="13" y="18" as="offset" />
          </mxGeometry>
        </mxCell>
        <mxCell id="2RkC6UTGazBfT3ZMune4-112" value="Follow" style="shape=rhombus;double=1;perimeter=rhombusPerimeter;whiteSpace=wrap;html=1;align=center;fillColor=#fff2cc;strokeColor=#d6b656;rounded=0;" parent="2RkC6UTGazBfT3ZMune4-1" vertex="1">
          <mxGeometry x="700" y="1150" width="120" height="60" as="geometry" />
        </mxCell>
        <mxCell id="2RkC6UTGazBfT3ZMune4-113" style="edgeStyle=none;curved=1;rounded=0;orthogonalLoop=1;jettySize=auto;html=1;fontSize=12;startSize=8;endSize=8;endArrow=none;startFill=0;" parent="2RkC6UTGazBfT3ZMune4-1" source="2RkC6UTGazBfT3ZMune4-115" target="2RkC6UTGazBfT3ZMune4-68" edge="1">
          <mxGeometry relative="1" as="geometry" />
        </mxCell>
        <mxCell id="2RkC6UTGazBfT3ZMune4-114" value="(1, 1)&lt;div&gt;platform&lt;/div&gt;" style="edgeLabel;html=1;align=center;verticalAlign=middle;resizable=0;points=[];fontSize=12;rounded=0;" parent="2RkC6UTGazBfT3ZMune4-113" vertex="1" connectable="0">
          <mxGeometry x="0.62" y="-3" relative="1" as="geometry">
            <mxPoint x="27" y="-13" as="offset" />
          </mxGeometry>
        </mxCell>
        <mxCell id="2RkC6UTGazBfT3ZMune4-115" value="Contain" style="shape=rhombus;perimeter=rhombusPerimeter;whiteSpace=wrap;html=1;align=center;fillColor=#fff2cc;strokeColor=#d6b656;rounded=0;" parent="2RkC6UTGazBfT3ZMune4-1" vertex="1">
          <mxGeometry x="870" y="951.26" width="120" height="60" as="geometry" />
        </mxCell>
        <mxCell id="2RkC6UTGazBfT3ZMune4-116" style="edgeStyle=none;curved=1;rounded=0;orthogonalLoop=1;jettySize=auto;html=1;fontSize=12;startSize=8;endSize=8;endArrow=none;startFill=0;" parent="2RkC6UTGazBfT3ZMune4-1" source="2RkC6UTGazBfT3ZMune4-126" target="2RkC6UTGazBfT3ZMune4-78" edge="1">
          <mxGeometry relative="1" as="geometry">
            <mxPoint x="140" y="1590" as="sourcePoint" />
            <mxPoint x="120" y="1830" as="targetPoint" />
          </mxGeometry>
        </mxCell>
        <mxCell id="2RkC6UTGazBfT3ZMune4-117" value="(0, N)&lt;div&gt;service&lt;/div&gt;" style="edgeLabel;html=1;align=center;verticalAlign=middle;resizable=0;points=[];fontSize=12;rounded=0;fontColor=#000000;" parent="2RkC6UTGazBfT3ZMune4-116" vertex="1" connectable="0">
          <mxGeometry x="0.44" relative="1" as="geometry">
            <mxPoint x="-23" y="6" as="offset" />
          </mxGeometry>
        </mxCell>
        <mxCell id="2RkC6UTGazBfT3ZMune4-118" style="edgeStyle=none;curved=1;rounded=0;orthogonalLoop=1;jettySize=auto;html=1;fontSize=12;startSize=8;endSize=8;endArrow=none;startFill=0;" parent="2RkC6UTGazBfT3ZMune4-1" source="2RkC6UTGazBfT3ZMune4-119" target="2RkC6UTGazBfT3ZMune4-23" edge="1">
          <mxGeometry relative="1" as="geometry" />
        </mxCell>
        <mxCell id="2RkC6UTGazBfT3ZMune4-119" value="Sequence_No" style="ellipse;whiteSpace=wrap;html=1;align=center;dashed=1;fillColor=#d5e8d4;strokeColor=#82b366;rounded=0;" parent="2RkC6UTGazBfT3ZMune4-1" vertex="1">
          <mxGeometry x="980" y="1110" width="100" height="40" as="geometry" />
        </mxCell>
        <mxCell id="2RkC6UTGazBfT3ZMune4-120" value="Sequence_No" style="ellipse;whiteSpace=wrap;html=1;align=center;fillColor=#d5e8d4;strokeColor=#82b366;rounded=0;" parent="2RkC6UTGazBfT3ZMune4-1" vertex="1">
          <mxGeometry x="520.5" y="1220" width="100" height="40" as="geometry" />
        </mxCell>
        <mxCell id="2RkC6UTGazBfT3ZMune4-121" value="Arrival_Time" style="ellipse;whiteSpace=wrap;html=1;align=center;fillColor=#d5e8d4;strokeColor=#82b366;rounded=0;" parent="2RkC6UTGazBfT3ZMune4-1" vertex="1">
          <mxGeometry x="990" y="1211" width="100" height="40" as="geometry" />
        </mxCell>
        <mxCell id="2RkC6UTGazBfT3ZMune4-122" value="Departure_Time" style="ellipse;whiteSpace=wrap;html=1;align=center;fillColor=#d5e8d4;strokeColor=#82b366;rounded=0;" parent="2RkC6UTGazBfT3ZMune4-1" vertex="1">
          <mxGeometry x="1000" y="1161" width="100" height="40" as="geometry" />
        </mxCell>
        <mxCell id="2RkC6UTGazBfT3ZMune4-123" value="Located_At" style="shape=rhombus;double=1;perimeter=rhombusPerimeter;whiteSpace=wrap;html=1;align=center;fillColor=#fff2cc;strokeColor=#d6b656;rounded=0;" parent="2RkC6UTGazBfT3ZMune4-1" vertex="1">
          <mxGeometry x="509" y="1050" width="120" height="60" as="geometry" />
        </mxCell>
        <mxCell id="2RkC6UTGazBfT3ZMune4-124" style="edgeStyle=orthogonalEdgeStyle;rounded=0;orthogonalLoop=1;jettySize=auto;html=1;endArrow=none;startFill=0;" parent="2RkC6UTGazBfT3ZMune4-1" source="2RkC6UTGazBfT3ZMune4-126" target="2RkC6UTGazBfT3ZMune4-128" edge="1">
          <mxGeometry relative="1" as="geometry" />
        </mxCell>
        <mxCell id="2RkC6UTGazBfT3ZMune4-125" value="(0, N)&lt;div&gt;weekday&lt;/div&gt;" style="edgeLabel;html=1;align=center;verticalAlign=middle;resizable=0;points=[];fontColor=#000000;" parent="2RkC6UTGazBfT3ZMune4-124" vertex="1" connectable="0">
          <mxGeometry x="0.1143" y="-2" relative="1" as="geometry">
            <mxPoint x="-3" y="-22" as="offset" />
          </mxGeometry>
        </mxCell>
        <mxCell id="2RkC6UTGazBfT3ZMune4-126" value="Work_on" style="shape=rhombus;perimeter=rhombusPerimeter;whiteSpace=wrap;html=1;align=center;fillColor=#fff2cc;strokeColor=#d6b656;rounded=0;" parent="2RkC6UTGazBfT3ZMune4-1" vertex="1">
          <mxGeometry x="150" y="1550" width="120" height="60" as="geometry" />
        </mxCell>
        <mxCell id="2RkC6UTGazBfT3ZMune4-127" style="rounded=0;orthogonalLoop=1;jettySize=auto;html=1;endArrow=none;startFill=0;" parent="2RkC6UTGazBfT3ZMune4-1" source="2RkC6UTGazBfT3ZMune4-128" target="2RkC6UTGazBfT3ZMune4-129" edge="1">
          <mxGeometry relative="1" as="geometry" />
        </mxCell>
        <mxCell id="2RkC6UTGazBfT3ZMune4-128" value="Weekday" style="whiteSpace=wrap;html=1;align=center;fillColor=#dae8fc;strokeColor=#6c8ebf;rounded=0;" parent="2RkC6UTGazBfT3ZMune4-1" vertex="1">
          <mxGeometry x="329.5" y="1560" width="100" height="40" as="geometry" />
        </mxCell>
        <mxCell id="2RkC6UTGazBfT3ZMune4-129" value="Day" style="ellipse;whiteSpace=wrap;html=1;align=center;fillColor=#d5e8d4;strokeColor=#82b366;rounded=0;fontStyle=4" parent="2RkC6UTGazBfT3ZMune4-1" vertex="1">
          <mxGeometry x="450" y="1560" width="100" height="40" as="geometry" />
        </mxCell>
      </root>
    </mxGraphModel>
  </diagram>
</mxfile>
